<?xml version="1.0" encoding="UTF-8" standalone="no"?>
<svg
   xmlns:dc="http://purl.org/dc/elements/1.1/"
   xmlns:cc="http://creativecommons.org/ns#"
   xmlns:rdf="http://www.w3.org/1999/02/22-rdf-syntax-ns#"
   xmlns:svg="http://www.w3.org/2000/svg"
   xmlns="http://www.w3.org/2000/svg"
   xmlns:sodipodi="http://sodipodi.sourceforge.net/DTD/sodipodi-0.dtd"
   xmlns:inkscape="http://www.inkscape.org/namespaces/inkscape"
   width="372pt"
   height="100pt"
   viewBox="0 0 372 100"
   version="1.1"
   id="svg2"
   inkscape:version="0.48.5 r10040"
   sodipodi:docname="hd_srns-mast01-cut-2.svg">
  <metadata
     id="metadata66">
    <rdf:RDF>
      <cc:Work
         rdf:about="">
        <dc:format>image/svg+xml</dc:format>
        <dc:type
           rdf:resource="http://purl.org/dc/dcmitype/StillImage" />
        <dc:title></dc:title>
      </cc:Work>
    </rdf:RDF>
  </metadata>
  <defs
     id="defs64" />
  <sodipodi:namedview
     pagecolor="#ffffff"
     bordercolor="#666666"
     borderopacity="1"
     objecttolerance="10"
     gridtolerance="10"
     guidetolerance="10"
     inkscape:pageopacity="0"
     inkscape:pageshadow="2"
     inkscape:window-width="1440"
     inkscape:window-height="772"
     id="namedview62"
     showgrid="false"
     inkscape:zoom="6.0731184"
     inkscape:cx="225.39578"
     inkscape:cy="55.916628"
     inkscape:window-x="0"
     inkscape:window-y="0"
     inkscape:window-maximized="1"
     inkscape:current-layer="svg2" />
  <path
     fill="#000000"
     d=" M 78.40 18.29 C 87.94 20.27 97.97 22.86 105.05 30.03 C 111.23 35.76 114.29 44.93 111.46 53.07 C 108.37 61.67 100.68 67.64 92.36 70.78 C 99.36 70.98 106.36 70.72 113.37 70.90 C 113.34 77.37 113.36 83.85 113.34 90.32 C 105.54 90.27 97.74 90.37 89.93 90.31 C 86.26 90.31 82.26 88.96 80.21 85.73 C 77.91 82.15 78.39 77.72 78.35 73.68 C 78.40 68.90 78.37 64.12 78.36 59.34 C 78.36 55.98 78.36 52.62 78.41 49.26 C 82.17 50.11 85.66 51.75 88.90 53.80 C 86.15 49.76 81.80 47.63 77.76 45.17 C 83.32 45.37 88.47 47.68 93.20 50.44 C 89.17 45.49 83.57 42.40 77.55 40.56 C 84.12 40.10 90.33 42.69 96.05 45.62 C 91.35 40.62 85.13 37.20 78.32 36.17 C 78.34 35.97 78.37 35.56 78.39 35.36 C 85.27 35.73 91.61 38.52 97.59 41.72 C 94.84 39.26 92.01 36.83 88.65 35.25 C 85.12 33.44 81.13 32.89 77.47 31.44 C 82.22 30.56 86.80 32.27 91.18 33.90 C 87.49 30.84 83.06 28.92 78.39 27.97 C 78.36 24.74 78.36 21.52 78.40 18.29 Z"
     id="path10" />
  <path
     fill="#000000"
     d=" M 46.19 30.19 C 53.33 22.94 63.45 20.12 73.17 18.34 C 73.15 21.54 73.15 24.75 73.15 27.96 C 68.42 28.85 64.00 30.88 60.18 33.79 C 64.56 32.26 69.08 30.81 73.80 31.20 C 70.98 33.07 67.45 33.09 64.43 34.50 C 60.50 36.01 57.14 38.64 54.25 41.65 C 60.19 38.36 66.68 35.26 73.66 35.65 C 66.85 37.51 60.06 40.23 55.33 45.70 C 60.99 42.58 67.24 40.35 73.78 40.36 C 67.96 42.59 62.13 45.29 58.43 50.56 C 63.03 47.59 68.19 45.21 73.79 45.25 C 69.59 47.54 65.23 49.76 62.45 53.83 C 65.74 51.71 69.32 50.07 73.18 49.30 C 72.99 59.59 73.25 69.89 73.11 80.18 C 72.54 85.03 69.08 89.72 63.92 90.12 C 55.33 90.63 46.70 90.15 38.10 90.33 C 38.10 86.88 38.11 83.43 38.09 79.98 C 38.08 76.93 38.09 73.88 38.10 70.83 C 45.06 70.88 52.01 70.78 58.97 70.97 C 55.07 69.15 51.26 67.08 47.92 64.34 C 43.90 60.78 40.59 56.22 39.39 50.91 C 37.55 43.42 40.77 35.42 46.19 30.19 Z"
     id="path12" />
  <path
     d=" M 136.28 23.31 C 143.43 19.29 152.45 19.10 160.02 22.05 C 166.25 24.33 170.90 29.53 173.68 35.43 C 169.70 36.70 165.71 37.94 161.73 39.22 C 160.12 36.37 158.41 33.28 155.37 31.73 C 151.44 29.82 146.58 29.87 142.67 31.81 C 138.76 34.08 138.39 40.26 142.25 42.79 C 148.95 47.52 157.31 48.95 164.37 53.06 C 170.79 56.52 175.64 63.28 174.85 70.83 C 174.82 78.37 170.33 85.64 163.23 88.46 C 157.58 90.29 151.60 91.19 145.69 90.20 C 136.88 88.32 128.56 82.80 125.11 74.23 C 127.02 73.38 128.92 72.54 130.82 71.68 C 132.50 70.95 134.18 70.24 135.87 69.51 C 136.26 70.14 136.65 70.77 137.05 71.40 C 140.69 79.52 151.49 82.74 159.03 78.13 C 162.04 76.27 162.73 72.50 162.50 69.22 C 161.19 66.71 159.23 64.54 156.69 63.22 C 149.62 59.34 141.54 57.47 134.83 52.88 C 130.61 49.96 127.18 45.35 127.18 40.04 C 126.65 33.29 130.46 26.64 136.28 23.31 Z"
     id="path14"
     fill="#010101" />
  <path
     fill="#000000"
     d=" M 245.82 21.23 C 250.34 20.76 254.88 20.87 259.42 20.89 C 268.63 36.46 277.68 52.14 286.60 67.89 C 286.72 52.23 286.67 36.58 286.67 20.92 C 290.74 21.27 295.27 20.03 299.07 21.57 C 299.29 44.10 299.18 66.65 299.20 89.20 C 294.96 89.72 290.68 89.47 286.42 89.45 C 286.23 89.13 285.83 88.50 285.64 88.19 C 283.17 83.88 280.76 79.55 278.23 75.27 C 271.48 63.70 265.13 51.89 258.15 40.46 C 258.28 56.81 258.14 73.16 258.24 89.51 C 254.14 89.52 250.03 89.57 245.93 89.39 C 245.69 66.67 246.04 43.95 245.82 21.23 Z"
     id="path16" />
  <path
     fill="#010101"
     d=" M 324.73 20.69 C 330.75 19.82 337.12 19.69 342.80 22.15 C 348.94 24.42 353.42 29.65 356.21 35.42 C 352.25 36.69 348.28 37.94 344.31 39.17 C 342.68 36.40 341.04 33.34 338.06 31.82 C 334.22 29.87 329.45 29.81 325.57 31.69 C 321.84 33.46 320.86 39.23 323.94 42.06 C 326.88 44.76 330.76 46.10 334.40 47.59 C 342.73 50.78 352.41 54.18 356.37 62.94 C 358.29 69.27 357.46 76.34 354.02 82.01 C 351.38 85.57 347.47 87.85 343.36 89.31 C 336.21 91.31 328.58 90.99 321.70 88.16 C 316.79 85.94 312.40 82.48 309.53 77.89 C 308.87 76.66 308.26 75.41 307.65 74.16 C 311.28 72.68 314.87 71.08 318.40 69.37 C 320.23 72.45 322.01 75.79 325.10 77.79 C 329.69 80.72 335.79 80.98 340.68 78.63 C 345.77 76.40 346.44 68.34 342.00 65.12 C 337.53 61.70 332.08 59.98 326.96 57.80 C 321.67 55.67 316.20 53.08 312.66 48.43 C 308.43 42.77 308.91 34.53 312.78 28.82 C 315.46 24.54 320.21 22.45 324.73 20.69 Z"
     id="path18" />
  <path
     d="M 246.0625 26.09375 C 240.99688 26.101562 235.93125 26.1625 230.875 26.4375 C 230.8875 39.675 230.88125 52.9 230.90625 66.125 C 230.93125 73.5875 230.8875 81.05 230.875 88.5 C 230.8875 95.725 230.8375 102.9625 230.9375 110.1875 C 230.95 110.6125 230.96875 111.46875 230.96875 111.90625 C 236.44375 111.84375 241.9 111.88125 247.375 111.84375 C 247.2125 100.21875 247.375 88.575 247.3125 76.9375 C 252.025 76.925 256.7125 76.925 261.4375 76.9375 C 263.275 81.1125 265.2 85.26875 267.125 89.40625 C 270.125 95.85625 273.0625 102.325 276.125 108.75 C 276.4875 109.5125 277.2625 111.05 277.625 111.8125 C 283.7 111.8625 289.7375 111.8625 295.8125 111.875 C 295.4375 111.125 294.7 109.625 294.3125 108.875 C 291.7 103.7 289.14375 98.4875 286.53125 93.3125 C 283.35625 86.8 280.15 80.33125 276.9375 73.84375 C 281.2375 72.10625 285.425 69.8 288.375 66.125 C 295.3375 55.525 293.7875 39.4625 283.625 31.4375 C 277.3 26.575 268.91875 26.26875 261.28125 26.15625 C 256.2125 26.15 251.12812 26.085938 246.0625 26.09375 z M 257.53125 39.375 C 261.11563 39.340625 264.68125 39.525 268.15625 40.4375 C 276.40625 42.65 277.975 54.6875 272.5 60.3125 C 265.025 65.5625 255.275 63.04375 246.75 63.59375 C 246.8875 55.56875 246.8375 47.525 246.8125 39.5 C 250.3625 39.6375 253.94687 39.409375 257.53125 39.375 z "
     id="path20"
     transform="scale(0.8,0.8)" />
</svg>
